<svg width="14" height="16" viewBox="0 0 14 16" fill="none" xmlns="http://www.w3.org/2000/svg">
<path d="M11.375 6.5C11.375 7.93438 10.9676 9.25938 10.2812 10.3344L13.743 14.2937C14.0848 14.6844 14.0848 15.3188 13.743 15.7094C13.4012 16.1 12.8461 16.1 12.5043 15.7094L9.04258 11.75C8.10195 12.5375 6.94258 13 5.6875 13C2.5457 13 0 10.0906 0 6.5C0 2.90937 2.5457 0 5.6875 0C8.8293 0 11.375 2.90937 11.375 6.5ZM5.6875 11C6.20458 11 6.7166 10.8836 7.19432 10.6575C7.67204 10.4313 8.1061 10.0998 8.47173 9.68198C8.83736 9.26412 9.1274 8.76804 9.32528 8.22208C9.52315 7.67611 9.625 7.09095 9.625 6.5C9.625 5.90905 9.52315 5.32389 9.32528 4.77792C9.1274 4.23196 8.83736 3.73588 8.47173 3.31802C8.1061 2.90016 7.67204 2.56869 7.19432 2.34254C6.7166 2.1164 6.20458 2 5.6875 2C5.17042 2 4.6584 2.1164 4.18068 2.34254C3.70296 2.56869 3.2689 2.90016 2.90327 3.31802C2.53764 3.73588 2.2476 4.23196 2.04972 4.77792C1.85185 5.32389 1.75 5.90905 1.75 6.5C1.75 7.09095 1.85185 7.67611 2.04972 8.22208C2.2476 8.76804 2.53764 9.26412 2.90327 9.68198C3.2689 10.0998 3.70296 10.4313 4.18068 10.6575C4.6584 10.8836 5.17042 11 5.6875 11Z" fill="black"/>
</svg>
